<svg viewBox="0 0 864 861" xmlns="http://www.w3.org/2000/svg" xmlns:inkpad="http://inkpad.envoza.com/svg_extensions">
    <g inkpad:layerName="Слой 1" stroke="#000" fill="#1234df" fill-opacity=".167" stroke-linejoin="round">
        <path d="M283.122 456.661s1.778-31.125-4.406-45.596c-6.185-14.471-7.242-14.402-13.969-23.896-6.726-9.495-17.569-14.772-27.908-19.665-10.339-4.893-18.566-4.419-35.572-4.7-17.006-.282-29.991 7.529-33.495 9.711-3.503 2.181-9.189 4.363-22.742 19.238 0 0-17.992 18.697-17.588 46.611.404 27.913-.787 41.04 15.975 60.03 0 0 12.308 14.711 32.353 22.682 20.044 7.971 29.254 6.281 37.29 6.346 8.035.065 21.358.618 37.608-7.885 16.251-8.503 9.384-3.394 26.466-15.023l-22.835-32.396s-13.373 16.298-42.647 12.723c-29.273-3.574-31.907-15.283-36.558-28.009l108.028-.171z"/>
        <path d="m238.615 428.584-64.381.247s6.199-17.671 20.42-22.76c0 0 34.58-15.517 43.961 22.513zM410.006 382.187l-.028-78.437 48.139-.108.157 221.699-45.541-.271-.187-16.987s-17.976 15.136-27.473 17.156c0 0-15.772 3.383-25.924 2.401 0 0-17.951.429-30.464-9.143-12.513-9.572-14.667-12.694-19.6-19.174-4.934-6.479-11.183-16.02-14.202-35.096-3.019-19.076-1.158-27.423-.217-39.29 0 0 2.406-33.908 30.627-50.899 0 0 16.594-11.983 40.273-11.254 23.68.728 40.175 14.14 44.44 19.403z"/>
        <path d="M412.408 443.472c1.157 28.639-19.238 46.069-37.101 44.261-17.864-1.808-36.66-12.378-34.001-49.074 2.659-36.696 34.391-35.879 34.391-35.879 12.974-2.217 35.554 12.053 36.711 40.692zM489.426 365.799l46.112.423.565 24.536s16.553-21.953 32.827-25.819c0 0 13.218-5.395 33-.18l-13.937 55.119s-20.12-14.981-41.79 3.721c0 0-8.124 8.654-7.935 31.061l.06 70.399-49.895.345.993-159.605zM602.167 394.686l28.69 27.744s13.234-17.755 24.191-17.609c0 0 15.986-1.904 23.914 1.226 9.006 3.557 13.801 7.396 14.595 24.88l-41.779.142s-26.532 1.406-37.259 13.316c0 0-14.437 12.778-14.979 30.762 0 0-.861 4.109 3.429 22.641 0 0 3.269 8.324 12.148 16.526 0 0 5.37 8.511 24.065 12.214 18.695 3.702 25.676.668 28.832 0 3.156-.668 20.47-8.822 26.547-16.984l-.248 16.247 45.891-.627-.902-120.534s-3.011-38.363-53.196-41.151c0 0-49.837-6.407-83.939 31.207z"/>
        <path d="m693.715 461.09-.321 20.033s-4.676 10.04-26.406 10.728c-21.73.688-21.776-12.103-21.592-14.854.183-2.75 5.363-14.486 16.274-14.899 10.911-.412 32.045-1.008 32.045-1.008z"/>
    </g>
</svg>