<svg height="100%" viewBox="0,0,864,861" xmlns="http://www.w3.org/2000/svg" width="100%">
        <path fill-rule="evenodd"
              d="M283.122 456.661C283.122 456.661 284.9 425.536 278.716 411.065C272.531 396.594 271.474 396.663 264.747 387.169C258.021 377.674 247.178 372.397 236.839 367.504C226.5 362.611 218.273 363.085 201.267 362.804C184.261 362.522 171.276 370.333 167.772 372.515C164.269 374.696 158.583 376.878 145.03 391.753C145.03 391.753 127.038 410.45 127.442 438.364C127.846 466.277 126.655 479.404 143.417 498.394C143.417 498.394 155.725 513.105 175.77 521.076C195.814 529.047 205.024 527.357 213.06 527.422C221.095 527.487 234.418 528.04 250.668 519.537C266.919 511.034 260.052 516.143 277.134 504.514L254.299 472.118C254.299 472.118 240.926 488.416 211.652 484.841C182.379 481.267 179.745 469.558 175.094 456.832L283.122 456.661Z
           M238.615 428.584L174.234 428.831C174.234 428.831 180.433 411.16 194.654 406.071C194.654 406.071 229.234 390.554 238.615 428.584Z"
              fill="#1234df" stroke="#000000" stroke-width="1" stroke-linejoin="round"/>
        <path fill-rule="evenodd"
              d="M410.006 382.187L409.978 303.75L458.117 303.642L458.274 525.341L412.733 525.07L412.546 508.083C412.546 508.083 394.57 523.219 385.073 525.239C385.073 525.239 369.301 528.622 359.149 527.64C359.149 527.64 341.198 528.069 328.685 518.497C316.172 508.925 314.018 505.803 309.085 499.323C304.151 492.844 297.902 483.303 294.883 464.227C291.864 445.151 293.725 436.804 294.666 424.937C294.666 424.937 297.072 391.029 325.293 374.038C325.293 374.038 341.887 362.055 365.566 362.784C389.246 363.512 405.741 376.924 410.006 382.187Z
           M412.408 443.472C413.565 472.111 393.17 489.541 375.307 487.733C357.443 485.925 338.647 475.355 341.306 438.659C343.965 401.963 375.697 402.78 375.697 402.78C388.671 400.563 411.251 414.833 412.408 443.472Z"
              fill="#1234df" stroke="#000000" stroke-width="1" stroke-linejoin="round"/>
        <path fill-rule="evenodd"
              d="M489.426 365.799L535.538 366.222L536.103 390.758C536.103 390.758 552.656 368.805 568.93 364.939C568.93 364.939 582.148 359.544 601.93 364.759L587.993 419.878C587.993 419.878 567.873 404.897 546.203 423.599C546.203 423.599 538.079 432.253 538.268 454.66L538.328 525.059L488.433 525.404L489.426 365.799Z"
              fill="#1234df" stroke="#000000" stroke-width="1" stroke-linejoin="round"/>
        <path fill-rule="evenodd"
              d="M602.167 394.686L630.857 422.43C630.857 422.43 644.091 404.675 655.048 404.821C655.048 404.821 671.034 402.917 678.962 406.047C687.968 409.604 692.763 413.443 693.557 430.927L651.778 431.069C651.778 431.069 625.246 432.475 614.519 444.385C614.519 444.385 600.082 457.163 599.54 475.147C599.54 475.147 598.679 479.256 602.969 497.788C602.969 497.788 606.238 506.112 615.117 514.314C615.117 514.314 620.487 522.825 639.182 526.528C657.877 530.23 664.858 527.196 668.014 526.528C671.17 525.86 688.484 517.706 694.561 509.544L694.313 525.791L740.204 525.164L739.302 404.63C739.302 404.63 736.291 366.267 686.106 363.479C686.106 363.479 636.269 357.072 602.167 394.686Z
           M693.715 461.09L693.394 481.123C693.394 481.123 688.718 491.163 666.988 491.851C645.258 492.539 645.212 479.748 645.396 476.997C645.579 474.247 650.759 462.511 661.67 462.098C672.581 461.686 693.715 461.09 693.715 461.09Z"
              fill="#1234df" stroke="#000000" stroke-width="1" stroke-linejoin="round"/>
</svg>
